<?xml version="1.0" standalone="no"?>
<!DOCTYPE svg PUBLIC "-//W3C//DTD SVG 20010904//EN"
 "http://www.w3.org/TR/2001/REC-SVG-20010904/DTD/svg10.dtd">
<svg version="1.0" xmlns="http://www.w3.org/2000/svg"
 width="124.000000pt" height="78.000000pt" viewBox="0 0 124.000000 78.000000"
 preserveAspectRatio="xMidYMid meet">

<g transform="translate(0.000000,78.000000) scale(0.100000,-0.100000)"
fill="#000000" stroke="none">
<path d="M22 758 c-7 -7 -12 -27 -12 -45 0 -51 28 -63 128 -56 45 3 82 9 82
14 0 7 -54 15 -140 22 -28 1 -35 6 -35 22 0 18 8 20 62 23 49 2 61 6 56 17 -7
19 -123 21 -141 3z"/>
<path d="M232 488 c-51 -104 -78 -201 -92 -331 -11 -93 -10 -102 8 -126 24
-33 62 -38 86 -12 14 15 20 42 23 93 3 40 11 104 19 142 13 68 11 92 -7 81
-16 -11 -41 -114 -47 -203 -6 -78 -9 -87 -27 -87 -19 0 -20 6 -17 85 3 107 31
227 78 336 50 117 32 133 -24 22z"/>
<path d="M1200 384 c0 -16 -7 -42 -15 -58 -19 -36 -19 -56 -1 -56 39 0 63 103
31 130 -13 11 -15 8 -15 -16z"/>
</g>
</svg>
